# xmcd
#
# Track frame offsets:
#	150
#	16092
#	30088
#	44627
#	61176
#	73227
#	87165
#	100161
#	116557
#	131967
#
# Disc length: 1978 seconds
#
# Revision: 1
# Processed by: cddbd v1.4PL0 Copyright (c) Steve Scherf et al.
# Submitted via: audiograbber 1.80.04
#
DISCID=8007b80a
DTITLE=Mark Merritt - If I Could Do It All Again
DYEAR=2000
DGENRE=Country
TTITLE0=Danger Straight Ahead
TTITLE1=The Best She Can
TTITLE2=The Thing That I`Ve Done Right
TTITLE3=Beer Slammin`,Son Of A Gun
TTITLE4=A Good Truck
TTITLE5=You Can`t Stop If You Never Slow Down
TTITLE6=Cold Beer And Sawdust
TTITLE7=Broken Hearts And Shattered Dreams
TTITLE8=Letting Go
TTITLE9=If I Could Do It All Again
EXTD=
EXTT0=
EXTT1=
EXTT2=
EXTT3=
EXTT4=
EXTT5=
EXTT6=
EXTT7=
EXTT8=
EXTT9=
PLAYORDER=
